<svg xmlns="http://www.w3.org/2000/svg" width="1163" height="490" viewBox="0 0 465 196" font-family="Arial, sans-serif">
  <defs>
    <marker id="ah" viewBox="0 0 8 6" refX="8" refY="3"
      markerWidth="4" markerHeight="3" orient="auto">
      <path d="M0.5,0.5 L7,3 L0.5,5.5" fill="none" stroke="#94A3B8"
        stroke-width="1.2" stroke-linejoin="round" stroke-linecap="round"/>
    </marker>
    <filter id="shadow" x="-6%" y="-8%" width="112%" height="128%">
      <feDropShadow dx="0" dy="0.5" stdDeviation="0.8"
        flood-color="#000" flood-opacity="0.05"/>
    </filter>
  </defs>
  <rect width="465" height="196" fill="#F8F9FB" rx="3"/>
  <text x="233" y="11" text-anchor="middle" font-size="6" font-weight="700" fill="#1E293B">PredictSwap Bridge Architecture</text>
  <rect x="158" y="16" width="150" height="10" rx="3" fill="#fff" stroke="#E2E5EA" stroke-width="0.4"/>
  <rect x="163" y="18.5" width="5" height="5" rx="2.5" fill="#fff" stroke="#E2E5EA" stroke-width="0.4"/>
  <text x="171" y="22.5" font-size="3.5" fill="#1E293B">Actor</text>
  <rect x="203" y="18.5" width="5" height="5" rx="1.5" fill="#fff" stroke="#E2E5EA" stroke-width="0.4"/>
  <rect x="204" y="19.5" width="0.8" height="3" rx="0.4" fill="#3B82F6"/>
  <text x="211" y="22.5" font-size="3.5" fill="#1E293B">Protocol</text>
  <rect x="251" y="18.5" width="5" height="5" rx="1.5" fill="#fff" stroke="#E2E5EA" stroke-width="0.4"/>
  <rect x="252" y="19.5" width="0.8" height="3" rx="0.4" fill="#F59E0B"/>
  <text x="259" y="22.5" font-size="3.5" fill="#1E293B">External</text>
  <rect x="56.3" y="84.0" width="388.9" height="102.0" rx="5" fill="#EDEEF2"/>
  <text x="442.2" y="89.0" text-anchor="end" font-size="3.5" fill="#94A3B8" font-weight="500">Polygon Chain</text>
  <rect x="56.3" y="84.0" width="388.9" height="40.0" rx="5" fill="#EDEEF2"/>
  <text x="442.2" y="89.0" text-anchor="end" font-size="3.5" fill="#94A3B8" font-weight="500">BSC Chain</text>
  <path d="M100.1,46.0 C100.1,70.0 129.1,70.0 129.1,94.0" fill="none" stroke="#94A3B8" stroke-width="0.5" marker-end="url(#ah)"/>
  <path d="M277.7,46.0 C277.7,70.0 257.5,70.0 257.5,94.0" fill="none" stroke="#94A3B8" stroke-width="0.5" marker-end="url(#ah)"/>
  <path d="M184.1,46.0 C184.1,70.0 129.1,70.0 129.1,94.0" fill="none" stroke="#94A3B8" stroke-width="0.5" marker-end="url(#ah)"/>
  <path d="M184.1,46.0 C184.1,70.0 257.5,70.0 257.5,94.0" fill="none" stroke="#94A3B8" stroke-width="0.5" marker-end="url(#ah)"/>
  <path d="M129.1,114.0 C129.1,135.0 239.8,135.0 239.8,156.0" fill="none" stroke="#94A3B8" stroke-width="0.5" marker-end="url(#ah)"/>
  <path d="M239.8,156.0 C239.8,135.0 257.5,135.0 257.5,114.0" fill="none" stroke="#94A3B8" stroke-width="0.5" marker-end="url(#ah)"/>
  <path d="M257.5,114.0 C257.5,135.0 372.4,135.0 372.4,156.0" fill="none" stroke="#94A3B8" stroke-width="0.5" marker-end="url(#ah)"/>
  <path d="M129.1,114.0 C129.1,135.0 100.0,135.0 100.0,156.0" fill="none" stroke="#94A3B8" stroke-width="0.5" marker-end="url(#ah)"/>
  <path d="M239.8,156.0 C239.8,135.0 129.1,135.0 129.1,114.0" fill="none" stroke="#94A3B8" stroke-width="0.5" marker-end="url(#ah)"/>
  <path d="M257.5,114.0 C257.5,135.0 239.8,135.0 239.8,156.0" fill="none" stroke="#94A3B8" stroke-width="0.5" marker-end="url(#ah)"/>
  <g filter="url(#shadow)">
    <rect x="66.1" y="32.0" width="68.0" height="14" rx="7" fill="#fff" stroke="#E2E5EA" stroke-width="0.5"/>
    <text x="100.1" y="40.8" text-anchor="middle" font-size="4.8" font-weight="600" fill="#1E293B">User (BSC)</text>
  </g>
  <g filter="url(#shadow)">
    <rect x="234.1" y="32.0" width="87.2" height="14" rx="7" fill="#fff" stroke="#E2E5EA" stroke-width="0.5"/>
    <text x="277.7" y="40.8" text-anchor="middle" font-size="4.8" font-weight="600" fill="#1E293B">User (Polygon)</text>
  </g>
  <g filter="url(#shadow)">
    <rect x="156.1" y="32.0" width="56.0" height="14" rx="7" fill="#fff" stroke="#E2E5EA" stroke-width="0.5"/>
    <text x="184.1" y="40.8" text-anchor="middle" font-size="4.8" font-weight="600" fill="#1E293B">Owner</text>
  </g>
  <g filter="url(#shadow)">
    <rect x="66.3" y="94.0" width="125.6" height="20" rx="3" fill="#fff" stroke="#E2E5EA" stroke-width="0.5"/>
    <rect x="69.3" y="97.0" width="1.4" height="14" rx="0.6" fill="#3B82F6"/>
    <text x="129.1" y="103.5" text-anchor="middle" font-size="4.8" font-weight="600" fill="#1E293B">PredictionMarketEscrow</text>
    <text x="129.1" y="108.5" text-anchor="middle" font-size="3.5" fill="#64748B">BSC Lock/Unlock</text>
  </g>
  <g filter="url(#shadow)">
    <rect x="213.9" y="94.0" width="87.2" height="20" rx="3" fill="#fff" stroke="#E2E5EA" stroke-width="0.5"/>
    <rect x="216.9" y="97.0" width="1.4" height="14" rx="0.6" fill="#3B82F6"/>
    <text x="257.5" y="103.5" text-anchor="middle" font-size="4.8" font-weight="600" fill="#1E293B">BridgeReceiver</text>
    <text x="257.5" y="108.5" text-anchor="middle" font-size="3.5" fill="#64748B">Polygon Mint/Burn</text>
  </g>
  <g filter="url(#shadow)">
    <rect x="309.6" y="156.0" width="125.6" height="20" rx="3" fill="#fff" stroke="#E2E5EA" stroke-width="0.5"/>
    <rect x="312.6" y="159.0" width="1.4" height="14" rx="0.6" fill="#3B82F6"/>
    <text x="372.4" y="165.5" text-anchor="middle" font-size="4.8" font-weight="600" fill="#1E293B">WrappedPredictionToken</text>
    <text x="372.4" y="170.5" text-anchor="middle" font-size="3.5" fill="#64748B">ERC-1155</text>
  </g>
  <g filter="url(#shadow)">
    <rect x="192.0" y="156.0" width="95.6" height="20" rx="3" fill="#fff" stroke="#E2E5EA" stroke-width="0.5"/>
    <rect x="195.0" y="159.0" width="1.4" height="14" rx="0.6" fill="#F59E0B"/>
    <text x="239.8" y="165.5" text-anchor="middle" font-size="4.8" font-weight="600" fill="#1E293B">LayerZero V2</text>
    <text x="239.8" y="170.5" text-anchor="middle" font-size="3.5" fill="#64748B">Cross-chain Messaging</text>
  </g>
  <g filter="url(#shadow)">
    <rect x="30.0" y="156.0" width="140.0" height="20" rx="3" fill="#fff" stroke="#E2E5EA" stroke-width="0.5"/>
    <rect x="33.0" y="159.0" width="1.4" height="14" rx="0.6" fill="#F59E0B"/>
    <text x="100.0" y="165.5" text-anchor="middle" font-size="4.8" font-weight="600" fill="#1E293B">PredictionMarket ERC-1155</text>
    <text x="100.0" y="170.5" text-anchor="middle" font-size="3.5" fill="#64748B">BSC Source Token</text>
  </g>
  <rect x="105.4" y="65.0" width="18.4" height="6.0" rx="1" fill="#F8F9FB"/>
  <text x="114.6" y="70.0" font-size="4" fill="#1E293B" font-weight="500" text-anchor="middle">lock()</text>
  <rect x="251.2" y="65.0" width="32.8" height="6.0" rx="1" fill="#F8F9FB"/>
  <text x="267.6" y="70.0" font-size="4" fill="#1E293B" font-weight="500" text-anchor="middle">bridgeBack()</text>
  <rect x="143.8" y="65.0" width="25.6" height="6.0" rx="1" fill="#F8F9FB"/>
  <text x="156.6" y="70.0" font-size="4" fill="#1E293B" font-weight="500" text-anchor="middle">admin ops</text>
  <rect x="208.0" y="65.0" width="25.6" height="6.0" rx="1" fill="#F8F9FB"/>
  <text x="220.8" y="70.0" font-size="4" fill="#1E293B" font-weight="500" text-anchor="middle">admin ops</text>
  <rect x="168.0" y="130.0" width="32.8" height="6.0" rx="1" fill="#EDEEF2"/>
  <text x="184.4" y="135.0" font-size="4" fill="#1E293B" font-weight="500" text-anchor="middle">send message</text>
  <rect x="228.6" y="130.0" width="40.0" height="6.0" rx="1" fill="#EDEEF2"/>
  <text x="248.6" y="135.0" font-size="4" fill="#1E293B" font-weight="500" text-anchor="middle">deliver message</text>
  <rect x="299.7" y="130.0" width="30.4" height="6.0" rx="1" fill="#EDEEF2"/>
  <text x="314.9" y="135.0" font-size="4" fill="#1E293B" font-weight="500" text-anchor="middle">mint / burn</text>
  <rect x="93.3" y="130.0" width="42.4" height="6.0" rx="1" fill="#EDEEF2"/>
  <text x="114.5" y="135.0" font-size="4" fill="#1E293B" font-weight="500" text-anchor="middle">safeTransferFrom</text>
  <rect x="165.6" y="122.0" width="37.6" height="6.0" rx="1" fill="#EDEEF2"/>
  <text x="184.4" y="127.0" font-size="4" fill="#1E293B" font-weight="500" text-anchor="middle">deliver unlock</text>
  <rect x="233.4" y="122.0" width="30.4" height="6.0" rx="1" fill="#EDEEF2"/>
  <text x="248.6" y="127.0" font-size="4" fill="#1E293B" font-weight="500" text-anchor="middle">send unlock</text>
</svg>